<?xml version="1.0" encoding="UTF-8"?>
<svg width="33px" height="33px" viewBox="0 0 33 33" version="1.1" xmlns="http://www.w3.org/2000/svg" xmlns:xlink="http://www.w3.org/1999/xlink">
    <title>72E43C08-CE6B-4EB8-A5BA-E05D4EB41846</title>
    <g id="MAQUETTES" stroke="none" stroke-width="1" fill="none" fill-rule="evenodd">
        <g id="HOME01" transform="translate(-1308.000000, -21.000000)" fill="#FFFFFF" fill-rule="nonzero">
            <g id="BOOK" transform="translate(1184.000000, 0.000000)">
                <g id="cal-icon" transform="translate(124.000000, 21.000000)">
                    <path d="M32.2559988,2.6879999 L32.2559988,32.2559988 L0,32.2559988 L0,2.6879999 L4.03199985,2.6879999 L4.03199985,4.03199985 C4.03199985,5.5144318 5.23756781,6.71999975 6.71999975,6.71999975 C8.2024317,6.71999975 9.40799965,5.5144318 9.40799965,4.03199985 L9.40799965,2.6879999 L22.8479992,2.6879999 L22.8479992,4.03199985 C22.8479992,5.5144318 24.0535671,6.71999975 25.5359991,6.71999975 C27.018431,6.71999975 28.223999,5.5144318 28.223999,4.03199985 L28.223999,2.6879999 L32.2559988,2.6879999 Z M29.5679989,10.7519996 L2.6879999,10.7519996 L2.6879999,29.5679989 L29.5679989,29.5679989 L29.5679989,10.7519996 Z M26.879999,1.34399995 C26.879999,0.602111978 26.279231,0 25.5359991,0 C24.7927671,0 24.1919991,0.602111978 24.1919991,1.34399995 L24.1919991,4.03199985 C24.1919991,4.77388782 24.7927671,5.3759998 25.5359991,5.3759998 C26.279231,5.3759998 26.879999,4.77388782 26.879999,4.03199985 L26.879999,1.34399995 Z M8.0639997,4.03199985 C8.0639997,4.77388782 7.46323172,5.3759998 6.71999975,5.3759998 C5.97676778,5.3759998 5.3759998,4.77388782 5.3759998,4.03199985 L5.3759998,1.34399995 C5.3759998,0.602111978 5.97676778,0 6.71999975,0 C7.46323172,0 8.0639997,0.602111978 8.0639997,1.34399995 L8.0639997,4.03199985 Z M9.40799965,19.7957753 L10.5571196,18.7326713 C11.9011196,19.3831673 12.7545595,19.8777593 14.2665595,20.9556472 C17.1064314,17.7313913 18.9853433,16.0957434 22.4730232,13.9251835 L22.8479992,14.7853435 C19.9704953,17.2972794 17.8631033,20.0927993 14.8283515,25.5359991 C12.9561595,23.3318391 11.7075836,21.9260152 9.40799965,19.7957753 Z" id="Shape"></path>
                </g>
            </g>
        </g>
    </g>
</svg>