<?xml version="1.0" encoding="UTF-8"?>
<svg width="18px" height="20px" viewBox="0 0 18 20" version="1.1" xmlns="http://www.w3.org/2000/svg" xmlns:xlink="http://www.w3.org/1999/xlink">
    <title>90996591-D36D-4122-9BB4-48C300353D6D</title>
    <g id="MAQUETTES" stroke="none" stroke-width="1" fill="none" fill-rule="evenodd">
        <g id="FACILITIES" transform="translate(-745.000000, -1237.000000)" fill="#07356D">
            <g id="col2" transform="translate(745.000000, 761.000000)">
                <g id="Group-2" transform="translate(0.000000, 343.000000)">
                    <g id="Group" transform="translate(0.000000, 1.000000)">
                        <g id="cal2-icon" transform="translate(0.000000, 132.000000)">
                            <polygon id="Fill-1" points="3.81866421 10.0053365 5.81817632 10.0053365 5.81817632 8.23024845 3.81866421 8.23024845"></polygon>
                            <polygon id="Fill-2" points="7.75893642 10.0053365 9.75823253 10.0053365 9.75823253 8.23024845 7.75893642 8.23024845"></polygon>
                            <polygon id="Fill-3" points="11.6989926 10.0053365 13.6980727 10.0053365 13.6980727 8.23024845 11.6989926 8.23024845"></polygon>
                            <polygon id="Fill-4" points="3.81866421 13.0524487 5.81817632 13.0524487 5.81817632 11.2773606 3.81866421 11.2773606"></polygon>
                            <polygon id="Fill-5" points="7.75893642 13.0524487 9.75823253 13.0524487 9.75823253 11.2773606 7.75893642 11.2773606"></polygon>
                            <polygon id="Fill-6" points="11.6989926 13.0524487 13.6980727 13.0524487 13.6980727 11.2773606 11.6989926 11.2773606"></polygon>
                            <polygon id="Fill-7" points="3.81866421 16.0999929 5.81817632 16.0999929 5.81817632 14.3246888 3.81866421 14.3246888"></polygon>
                            <polygon id="Fill-8" points="7.75893642 16.0999929 9.75823253 16.0999929 9.75823253 14.3246888 7.75893642 14.3246888"></polygon>
                            <polygon id="Fill-9" points="11.6989926 16.0999929 13.6980727 16.0999929 13.6980727 14.3246888 11.6989926 14.3246888"></polygon>
                            <path d="M11.4983718,0 L11.4983718,1.23400807 L6.01823553,1.23400807 L6.01823553,0 L4.48009944,0 L4.48009944,1.23400807 L4.32000023e-05,1.23400807 L4.32000023e-05,19.4400011 L17.5167802,19.4400011 L17.5167802,1.23400807 L13.0365079,1.23400807 L13.0365079,0 L11.4983718,0 Z M13.0365079,3.6981362 L13.0365079,2.77192815 L15.9786441,2.77192815 L15.9786441,5.4466563 L1.53796328,5.4466563 L1.53796328,2.77192815 L4.48009944,2.77192815 L4.48009944,3.6981362 L6.01823553,3.6981362 L6.01823553,2.77192815 L11.4983718,2.77192815 L11.4983718,3.6981362 L13.0365079,3.6981362 Z M1.53796328,17.902081 L15.9788601,17.902081 L15.9788601,6.98479238 L1.53796328,6.98479238 L1.53796328,17.902081 Z" id="Fill-10"></path>
                        </g>
                    </g>
                </g>
            </g>
        </g>
    </g>
</svg>