<?xml version="1.0" encoding="UTF-8"?>
<svg width="45px" height="40px" viewBox="0 0 45 40" version="1.1" xmlns="http://www.w3.org/2000/svg" xmlns:xlink="http://www.w3.org/1999/xlink">
    <title>1EE0C991-34FB-457A-8C61-48AB62C1616F</title>
    <g id="MAQUETTES" stroke="none" stroke-width="1" fill="none" fill-rule="evenodd">
        <g id="FACILITIES" transform="translate(-1270.000000, -1105.000000)">
            <g id="col2" transform="translate(745.000000, 761.000000)">
                <g id="Group-2" transform="translate(0.000000, 343.000000)">
                    <g id="social" transform="translate(463.000000, 0.000000)">
                        <g id="facebook" transform="translate(62.666667, 1.000000)">
                            <polygon id="Fill-7" fill="#07356D" points="35.2451862 0 8.96400186 0 0.933333333 24.4041003 22.200932 39.6305087 43.275353 24.5084664"></polygon>
                            <path d="M20.1599999,13.7599998 L18,13.7599998 L18,16.6399998 L20.1599999,16.6399998 L20.1599999,25.2799995 L23.7599998,25.2799995 L23.7599998,16.6399998 L26.3822398,16.6399998 L26.6399998,13.7599998 L23.7599998,13.7599998 L23.7599998,12.5597599 C23.7599998,11.8721599 23.8982398,11.5999999 24.5627998,11.5999999 L26.6399998,11.5999999 L26.6399998,8 L23.8982398,8 C21.3091199,8 20.1599999,9.13975997 20.1599999,11.3227999 L20.1599999,13.7599998 Z" id="Path" fill="#FFFFFF" fill-rule="nonzero"></path>
                        </g>
                    </g>
                </g>
            </g>
        </g>
    </g>
</svg>