<?xml version="1.0" encoding="UTF-8"?>
<svg width="55px" height="55px" viewBox="0 0 55 55" version="1.1" xmlns="http://www.w3.org/2000/svg" xmlns:xlink="http://www.w3.org/1999/xlink">
    <title>F19B9AA9-0CB2-472F-82C5-5A65158779EE</title>
    <g id="MAQUETTES" stroke="none" stroke-width="1" fill="none" fill-rule="evenodd">
        <g id="HOME01" transform="translate(-211.000000, -1139.000000)" fill="#FFFFFF">
            <g id="filed-icon" transform="translate(211.000000, 1139.000000)">
                <path d="M34.7587625,27.0637506 C34.7587625,28.7724884 34.1860211,30.3484166 33.2029929,31.6077362 L22.7774393,21.1821826 C24.0379447,20.1991544 25.6115013,19.6169266 27.3214249,19.6169266 C31.4171781,19.6169266 34.7587625,22.958511 34.7587625,27.0637506" id="Fill-1"></path>
                <path d="M21.4301333,22.5288956 L31.8556869,32.9544492 C30.5951815,33.927991 29.0204391,34.5007324 27.3223735,34.5007324 C23.2171339,34.5007324 19.8743637,31.1686344 19.8743637,27.0633948 C19.8743637,25.354657 20.4577773,23.7799146 21.4301333,22.5288956" id="Fill-3"></path>
                <polygon id="Fill-5" points="19.8077218 44.2867841 15.205632 48.8793875 5.56270638 39.2269755 10.154124 34.6343721"></polygon>
                <path d="M39.2077655,40.3054606 L27.0734741,52.4302656 C24.7718363,54.7212312 21.0496101,54.7212312 18.7574587,52.4302656 L16.3811155,50.0527366 L22.1559615,44.2861912 L10.1556655,32.2858952 L4.38912012,38.0524406 L1.72581332,35.3891338 C-0.57582448,33.0969824 -0.57582448,29.3735704 1.72581332,27.0826048 L13.8589189,14.9577998 L20.0642103,21.1630912 C18.7574587,22.776965 17.9653443,24.8295848 17.9653443,27.063632 C17.9653443,32.2194904 22.1559615,36.4101076 27.3213063,36.4101076 C29.5541677,36.4101076 31.5984869,35.6274796 33.2111749,34.3100558 L39.2077655,40.3054606 Z" id="Fill-7"></path>
                <polygon id="Fill-10" points="35.1976271 9.59229194 39.2257897 5.56294354 48.8782017 15.2058691 44.8500391 19.2447039"></polygon>
                <path d="M52.4299098,27.0729998 L40.5517512,38.9499726 L34.5670186,32.9640542 C35.874956,31.3501804 36.6682562,29.2975606 36.6682562,27.0635134 C36.6682562,21.907655 32.4764532,17.7075514 27.3205948,17.7075514 C25.0865476,17.7075514 23.0351136,18.4901794 21.4212398,19.8170896 L15.2052762,13.6023118 L27.082249,1.725339 C29.3732146,-0.575113 33.0954408,-0.575113 35.388778,1.725339 L38.0520848,4.3886458 L32.8476086,9.5919362 L44.8479046,21.593418 L50.0523808,16.3806412 L52.4299098,18.7569844 C54.7208754,21.0491358 54.7208754,24.7725478 52.4299098,27.0729998" id="Fill-12"></path>
            </g>
        </g>
    </g>
</svg>