<?xml version="1.0" encoding="UTF-8"?>
<svg width="43px" height="42px" viewBox="0 0 43 42" version="1.1" xmlns="http://www.w3.org/2000/svg" xmlns:xlink="http://www.w3.org/1999/xlink">
    <title>4669E580-7A31-4D3D-B66F-3C749AE8D594</title>
    <g id="MAQUETTES" stroke="none" stroke-width="1" fill="none" fill-rule="evenodd">
        <g id="FACILITIES" transform="translate(-1208.000000, -1104.000000)">
            <g id="col2" transform="translate(745.000000, 761.000000)">
                <g id="Group-2" transform="translate(0.000000, 343.000000)">
                    <g id="social" transform="translate(463.000000, 0.000000)">
                        <g id="instagram" transform="translate(0.000000, 0.200000)">
                            <polygon id="Fill-7" fill="#07356D" points="34.3118529 0.8 8.03066853 0.8 0 25.2041003 21.2675986 40.4305087 42.3420197 25.3084664"></polygon>
                            <path d="M21.6,9.7304 C24.1632,9.7304 24.4672,9.74 25.48,9.7864 C28.0816,9.9048 29.2968,11.1392 29.4152,13.7216 C29.4616,14.7336 29.4704,15.0376 29.4704,17.6008 C29.4704,20.1648 29.4608,20.468 29.4152,21.48 C29.296,24.06 28.084,25.2968 25.48,25.4152 C24.4672,25.4616 24.1648,25.4712 21.6,25.4712 C19.0368,25.4712 18.7328,25.4616 17.7208,25.4152 C15.1128,25.296 13.904,24.056 13.7856,21.4792 C13.7392,20.4672 13.7296,20.164 13.7296,17.6 C13.7296,15.0368 13.74,14.7336 13.7856,13.7208 C13.9048,11.1392 15.1168,9.904 17.7208,9.7856 C18.7336,9.74 19.0368,9.7304 21.6,9.7304 L21.6,9.7304 Z M21.6,8 C18.9928,8 18.6664,8.0112 17.6424,8.0576 C14.156,8.2176 12.2184,10.152 12.0584,13.6416 C12.0112,14.6664 12,14.9928 12,17.6 C12,20.2072 12.0112,20.5344 12.0576,21.5584 C12.2176,25.0448 14.152,26.9824 17.6416,27.1424 C18.6664,27.1888 18.9928,27.2 21.6,27.2 C24.2072,27.2 24.5344,27.1888 25.5584,27.1424 C29.0416,26.9824 30.984,25.048 31.1416,21.5584 C31.1888,20.5344 31.2,20.2072 31.2,17.6 C31.2,14.9928 31.1888,14.6664 31.1424,13.6424 C30.9856,10.1592 29.0488,8.2184 25.5592,8.0584 C24.5344,8.0112 24.2072,8 21.6,8 Z M21.6,12.6704 C18.8776,12.6704 16.6704,14.8776 16.6704,17.6 C16.6704,20.3224 18.8776,22.5304 21.6,22.5304 C24.3224,22.5304 26.5296,20.3232 26.5296,17.6 C26.5296,14.8776 24.3224,12.6704 21.6,12.6704 Z M21.6,20.8 C19.8328,20.8 18.4,19.368 18.4,17.6 C18.4,15.8328 19.8328,14.4 21.6,14.4 C23.3672,14.4 24.8,15.8328 24.8,17.6 C24.8,19.368 23.3672,20.8 21.6,20.8 Z M26.7248,11.324 C26.088,11.324 25.572,11.84 25.572,12.476 C25.572,13.112 26.088,13.628 26.7248,13.628 C27.3608,13.628 27.876,13.112 27.876,12.476 C27.876,11.84 27.3608,11.324 26.7248,11.324 Z" id="Shape" fill="#FFFFFF" fill-rule="nonzero"></path>
                        </g>
                    </g>
                </g>
            </g>
        </g>
    </g>
</svg>