<?xml version="1.0" encoding="UTF-8"?>
<svg width="54px" height="57px" viewBox="0 0 54 57" version="1.1" xmlns="http://www.w3.org/2000/svg" xmlns:xlink="http://www.w3.org/1999/xlink">
    <title>D4C9D33D-E5CE-4558-BEB0-65CF30351F9D</title>
    <defs>
        <polygon id="path-1" points="9.46830035e-05 0.6324 53.9387053 0.6324 53.9387053 55.2 9.46830035e-05 55.2"></polygon>
    </defs>
    <g id="MAQUETTES" stroke="none" stroke-width="1" fill="none" fill-rule="evenodd">
        <g id="HOME01" transform="translate(-207.000000, -1033.000000)">
            <g id="leagues-icon" transform="translate(207.000000, 1033.000000)">
                <g id="Group-3" transform="translate(0.000000, 0.567720)">
                    <mask id="mask-2" fill="white">
                        <use xlink:href="#path-1"></use>
                    </mask>
                    <g id="Clip-2"></g>
                    <path d="M32.613,42.18048 L20.6814,42.18048 C22.2546,40.15368 24.3414,36.52008 24.627,31.33248 C25.3878,31.39368 26.163,31.43568 26.9682,31.43568 L26.9694,31.43568 L26.9718,31.43568 C27.7746,31.43568 28.5462,31.39488 29.3046,31.33368 C29.5482,36.48768 31.3194,40.15848 32.613,42.18048 L32.613,42.18048 Z M14.3574,53.03928 L39.5022,53.03928 L39.5022,44.34168 L14.3574,44.34168 L14.3574,53.03928 Z M13.8018,2.79168 L40.137,2.79168 C40.0998,6.68568 39.5454,20.36328 33.6606,26.40768 C31.7838,28.33728 29.595,29.27448 26.9718,29.27448 L26.9694,29.27448 C24.3426,29.27448 22.1538,28.33728 20.277,26.40768 C14.391,20.36208 13.8378,6.68568 13.8018,2.79168 L13.8018,2.79168 Z M53.7102,8.44488 C53.505,8.18208 53.1906,8.02848 52.8582,8.02848 L46.0902,8.02848 C45.4938,8.02848 45.0102,8.51208 45.0102,9.10848 C45.0102,9.70608 45.4938,10.18968 46.0902,10.18968 L51.405,10.18968 C50.1522,13.92888 45.8058,24.26088 35.1762,27.94608 C35.1882,27.93408 35.199,27.92448 35.211,27.91248 C42.711,20.20488 42.3126,2.43528 42.291,1.68168 C42.2766,1.09848 41.7966,0.63168 41.2122,0.63168 L12.7266,0.63168 C12.141,0.63168 11.6622,1.09848 11.6466,1.68168 C11.6262,2.43528 11.2278,20.20488 18.7266,27.91248 C18.7374,27.92448 18.7494,27.93408 18.7614,27.94608 C8.1318,24.26088 3.7866,13.92888 2.5338,10.18968 L7.8474,10.18968 C8.4438,10.18968 8.9286,9.70608 8.9286,9.10848 C8.9286,8.51208 8.4438,8.02848 7.8474,8.02848 L1.0806,8.02848 C0.747,8.02848 0.4338,8.18208 0.2286,8.44488 C0.0234,8.70768 -0.0486,9.05088 0.033,9.37248 C0.0846,9.57648 5.013,28.26408 22.4754,31.07088 C22.1658,37.39728 18.7902,41.20608 17.8074,42.18048 L13.2774,42.18048 C12.681,42.18048 12.1962,42.66408 12.1962,43.26048 L12.1962,54.11928 C12.1962,54.71568 12.681,55.20048 13.2774,55.20048 L40.5834,55.20048 C41.1798,55.20048 41.6634,54.71568 41.6634,54.11928 L41.6634,43.26048 C41.6634,42.66408 41.1798,42.18048 40.5834,42.18048 L35.2626,42.18048 C34.3854,41.07408 31.7106,37.20408 31.4574,31.07208 C48.9234,28.26768 53.8542,9.57648 53.9058,9.37248 C53.9874,9.05088 53.9154,8.70768 53.7102,8.44488 L53.7102,8.44488 Z" id="Fill-1" fill="#FFFFFF" mask="url(#mask-2)"></path>
                </g>
                <path d="M20.12316,50.33844 L33.65796,50.33844 C34.25436,50.33844 34.73916,49.85484 34.73916,49.25844 C34.73916,48.66204 34.25436,48.17724 33.65796,48.17724 L20.12316,48.17724 C19.52676,48.17724 19.04316,48.66204 19.04316,49.25844 C19.04316,49.85484 19.52676,50.33844 20.12316,50.33844" id="Fill-4" fill="#FFFFFF"></path>
            </g>
        </g>
    </g>
</svg>