<?xml version="1.0" encoding="UTF-8"?>
<svg width="195px" height="63px" viewBox="0 0 195 63" version="1.1" xmlns="http://www.w3.org/2000/svg" xmlns:xlink="http://www.w3.org/1999/xlink">
    <title>3D9447B1-FF20-4770-B019-BE195C67F78D</title>
    <g id="MAQUETTES" stroke="none" stroke-width="1" fill="none" fill-rule="evenodd">
        <g id="HOME01" transform="translate(-623.000000, -18.000000)" fill="#FFFFFF">
            <g id="lefive-logo-white" transform="translate(623.000000, 18.000000)">
                <polygon id="Fill-1" points="70.5677592 12.2781452 76.628863 12.2781452 76.628863 34.1925124 87.8588786 34.1925124 87.8588786 39.7879202 70.5677592 39.7879202"></polygon>
                <polygon id="Fill-2" points="89.1403266 12.2781452 107.830102 12.2781452 107.830102 17.873553 95.2014304 17.873553 95.2014304 23.0024808 107.12999 23.0024808 107.12999 28.5971046 95.2014304 28.5971046 95.2014304 34.1925124 108.528646 34.1925124 108.528646 39.7879202 89.1403266 39.7879202"></polygon>
                <polygon id="Fill-3" points="119.756937 12.2781452 138.21308 12.2781452 138.21308 17.873553 125.817257 17.873553 125.817257 23.4681768 137.280904 23.4681768 137.280904 29.0635846 125.817257 29.0635846 125.817257 39.7879202 119.756937 39.7879202"></polygon>
                <polygon id="Fill-4" points="139.805227 39.7879986 145.867115 39.7879986 145.867115 12.2782236 139.805227 12.2782236"></polygon>
                <polygon id="Fill-5" points="146.760483 12.2781452 153.676147 12.2781452 160.475779 30.3070086 160.554179 30.3070086 167.469842 12.2781452 173.958226 12.2781452 162.613746 39.7879202 157.756083 39.7879202"></polygon>
                <polygon id="Fill-6" points="174.736189 12.2781452 174.736189 39.7879202 194.125293 39.7879202 194.125293 34.1925124 180.797293 34.1925124 180.797293 28.5971046 192.725853 28.5971046 192.725853 23.0024808 180.797293 23.0024808 180.797293 17.873553 193.425181 17.873553 193.425181 12.2781452"></polygon>
                <path d="M32.1265157,46.28336 C27.7564999,46.28336 23.894516,44.1187361 21.5456521,40.8063362 L26.7302439,36.2191524 C27.7651239,38.1391683 29.7925478,39.4445283 32.1265157,39.4445283 C35.5094756,39.4445283 38.2519075,36.7020963 38.2519075,33.3191365 C38.2519075,31.2532965 37.2256515,29.4297126 35.6592196,28.3203526 L40.8492994,23.7284648 C43.4553153,26.0992807 45.0907393,29.5183046 45.0907393,33.3191365 C45.0907393,40.4786242 39.2867875,46.28336 32.1265157,46.28336 L32.1265157,46.28336 Z M21.5997481,11.8665452 L43.3549633,11.8665452 L36.7105635,17.745761 L36.3718756,18.044465 L28.7843238,18.044465 L28.7153318,18.044465 L28.7153318,18.105617 L28.7153318,20.8112009 L28.7153318,24.8182248 L21.6005321,31.1137445 L21.6005321,25.7558887 L21.6005321,24.4003528 L21.6005321,18.044465 L21.5997481,18.044465 L21.5997481,11.8665452 Z M53.612035,0.783921573 L12.5476844,0.783921573 L-0.000235199992,38.9153283 L33.2303877,62.7065915 L66.1591705,39.0784003 L53.612035,0.783921573 Z" id="Fill-7"></path>
            </g>
        </g>
    </g>
</svg>