<?xml version="1.0" encoding="UTF-8"?>
<svg width="156px" height="51px" viewBox="0 0 156 51" version="1.1" xmlns="http://www.w3.org/2000/svg" xmlns:xlink="http://www.w3.org/1999/xlink">
    <title>E2BAA8A9-7F76-4F41-822E-BF67E2B8FF58</title>
    <g id="MAQUETTES" stroke="none" stroke-width="1" fill="none" fill-rule="evenodd">
        <g id="LEAGUES" transform="translate(-643.000000, -14.000000)" fill="#07356D">
            <g id="logo-lefive" transform="translate(643.000000, 14.000000)">
                <polygon id="Fill-1" points="56.4542074 9.82251615 61.3030904 9.82251615 61.3030904 27.3540099 70.2871029 27.3540099 70.2871029 31.8303362 56.4542074 31.8303362"></polygon>
                <polygon id="Fill-2" points="71.3122613 9.82251615 86.2640815 9.82251615 86.2640815 14.2988424 76.1611443 14.2988424 76.1611443 18.4019847 85.703992 18.4019847 85.703992 22.8776837 76.1611443 22.8776837 76.1611443 27.3540099 86.8229167 27.3540099 86.8229167 31.8303362 71.3122613 31.8303362"></polygon>
                <polygon id="Fill-3" points="95.8055494 9.82251615 110.570464 9.82251615 110.570464 14.2988424 100.653805 14.2988424 100.653805 18.7745414 109.824723 18.7745414 109.824723 23.2508677 100.653805 23.2508677 100.653805 31.8303362 95.8055494 31.8303362"></polygon>
                <polygon id="Fill-4" points="111.844182 31.8303989 116.693692 31.8303989 116.693692 9.82257887 111.844182 9.82257887"></polygon>
                <polygon id="Fill-5" points="117.408386 9.82251615 122.940917 9.82251615 128.380623 24.2456069 128.443343 24.2456069 133.975874 9.82251615 139.166581 9.82251615 130.090997 31.8303362 126.204866 31.8303362"></polygon>
                <polygon id="Fill-6" points="139.788951 9.82251615 139.788951 31.8303362 155.300234 31.8303362 155.300234 27.3540099 144.637834 27.3540099 144.637834 22.8776837 154.180682 22.8776837 154.180682 18.4019847 144.637834 18.4019847 144.637834 14.2988424 154.740144 14.2988424 154.740144 9.82251615"></polygon>
                <path d="M25.7012126,37.026688 C22.2051999,37.026688 19.1156128,35.2949889 17.2365217,32.645069 L21.3841951,28.9753219 C22.2120991,30.5113346 23.8340382,31.5556226 25.7012126,31.5556226 C28.4075805,31.5556226 30.601526,29.3616771 30.601526,26.6553092 C30.601526,25.0026372 29.7805212,23.5437701 28.5273757,22.6562821 L32.6794395,18.9827718 C34.7642523,20.8794246 36.0725914,23.6146437 36.0725914,26.6553092 C36.0725914,32.3828994 31.42943,37.026688 25.7012126,37.026688 L25.7012126,37.026688 Z M17.2797985,9.49323616 L34.6839707,9.49323616 L29.3684508,14.1966088 L29.0975004,14.435572 L23.0274591,14.435572 L22.9722655,14.435572 L22.9722655,14.4844936 L22.9722655,16.6489607 L22.9722655,19.8545798 L17.2804257,24.8909956 L17.2804257,20.604711 L17.2804257,19.5202822 L17.2804257,14.435572 L17.2797985,14.435572 L17.2797985,9.49323616 Z M42.889628,0.627137259 L10.0381475,0.627137259 L-0.000188159994,31.1322626 L26.5843101,50.1652732 L52.9273364,31.2627202 L42.889628,0.627137259 Z" id="Fill-7"></path>
            </g>
        </g>
    </g>
</svg>