<?xml version="1.0" encoding="UTF-8"?>
<svg width="17px" height="11px" viewBox="0 0 17 11" version="1.1" xmlns="http://www.w3.org/2000/svg" xmlns:xlink="http://www.w3.org/1999/xlink">
    <title>3BC6A716-E464-4B92-BDE8-64A0C056CFFC</title>
    <g id="MAQUETTES" stroke="none" stroke-width="1" fill="none" fill-rule="evenodd">
        <g id="FACILITIES" transform="translate(-745.000000, -1166.000000)" fill="#07356D" fill-rule="nonzero">
            <g id="col2" transform="translate(745.000000, 761.000000)">
                <g id="Group-2" transform="translate(0.000000, 343.000000)">
                    <g id="Group" transform="translate(0.000000, 1.000000)">
                        <g id="mail-icon" transform="translate(0.000000, 61.000000)">
                            <path d="M1.247948,1.664e-05 C1.0822968,1.664e-05 0.9243208,0.03292224 0.779948,0.09101664 L7.7414584,6.29202496 C7.9841112,6.50840736 8.2533672,6.50817856 8.4954584,6.29202496 L15.443948,0.09101664 C15.2995752,0.03292224 15.1415992,1.664e-05 14.975948,1.664e-05 L1.247948,1.664e-05 Z M0.012948,1.07250624 C0.005044,1.12937344 5.20000003e-05,1.18892384 5.20000003e-05,1.24801664 L5.20000003e-05,9.56802496 C5.20000003e-05,9.73870976 0.0360568,9.90111616 0.0975624,10.049025 L4.901052,5.43402496 L0.013052,1.07250624 L0.012948,1.07250624 Z M16.210948,1.07250624 L11.335948,5.42753536 L16.132948,10.0425146 C16.1924984,9.89662336 16.223948,9.73581856 16.223948,9.56802496 L16.223948,1.24801664 C16.223948,1.18892384 16.218748,1.12937344 16.211052,1.07250624 L16.210948,1.07250624 Z M10.399948,6.26602496 L9.3274584,7.22802496 C8.6456344,7.83688256 7.5911992,7.83586336 6.9094584,7.22802496 L5.836948,6.27251456 L1.104948,10.8095354 C1.1511864,10.8147354 1.2002952,10.8159834 1.247948,10.8159834 L14.975948,10.8159834 C15.0213752,10.8159834 15.0683,10.8139034 15.1124376,10.8095354 L10.399948,6.26602496 L10.399948,6.26602496 Z" id="Shape"></path>
                        </g>
                    </g>
                </g>
            </g>
        </g>
    </g>
</svg>