<?xml version="1.0" encoding="UTF-8"?>
<svg width="15px" height="15px" viewBox="0 0 15 15" version="1.1" xmlns="http://www.w3.org/2000/svg" xmlns:xlink="http://www.w3.org/1999/xlink">
    <title>3239CC74-5494-408C-B18F-0D39376644A9</title>
    <g id="MAQUETTES" stroke="none" stroke-width="1" fill="none" fill-rule="evenodd">
        <g id="FACILITIES" transform="translate(-747.000000, -1201.000000)" fill="#07356D" fill-rule="nonzero">
            <g id="col2" transform="translate(745.000000, 761.000000)">
                <g id="Group-2" transform="translate(0.000000, 343.000000)">
                    <g id="Group" transform="translate(0.000000, 1.000000)">
                        <g id="phone-icon" transform="translate(2.000000, 96.000000)">
                            <path d="M14.41264,12.81632 L13.28096,13.948 C12.77936,14.4496 12.11408,14.7224 11.41888,14.7224 C11.30976,14.7224 11.20064,14.71536 11.08976,14.70128 C8.7296,14.40912 6.13008,12.99584 3.95824,10.824 C1.7864,8.65392 0.37488,6.0544 0.08272,3.69424 C-0.0176,2.88112 0.25696,2.08384 0.83776,1.50304 L1.96944,0.37136 C2.38128,-0.04048 3.05184,-0.04048 3.46192,0.37136 L5.95056,2.86 C6.14944,3.05888 6.26032,3.32464 6.26032,3.60624 C6.26032,3.88784 6.1512,4.1536 5.95056,4.35248 L4.58128,5.72176 L9.06224,10.20272 L10.43152,8.83344 C10.84336,8.4216 11.51216,8.4216 11.924,8.83344 L14.41264,11.32208 C14.82448,11.73392 14.82448,12.40448 14.41264,12.81632 Z" id="Path"></path>
                        </g>
                    </g>
                </g>
            </g>
        </g>
    </g>
</svg>