<?xml version="1.0" encoding="UTF-8"?>
<svg width="76px" height="52px" viewBox="0 0 76 52" version="1.1" xmlns="http://www.w3.org/2000/svg" xmlns:xlink="http://www.w3.org/1999/xlink">
    <title>AAB83DCE-CAD7-49D3-8251-8D22447C0292</title>
    <g id="MAQUETTES" stroke="none" stroke-width="1" fill="none" fill-rule="evenodd">
        <g id="HOME01" transform="translate(-197.000000, -931.000000)" fill="#FFFFFF">
            <g id="pickup-icon" transform="translate(197.000000, 931.000000)">
                <path d="M43.49965,45.7510099 L41.0486014,45.0905193 L39.9458074,41.7358911 L41.7707536,39.9097591 C42.9684116,41.0943733 43.6514324,42.6999465 43.6514324,44.3944547 C43.6514324,44.8486161 43.6028146,45.3027775 43.49965,45.7510099 L43.49965,45.7510099 Z M37.8445698,50.6554787 L37.8445698,48.1344679 L40.7924686,46.0201865 L43.2245444,46.6664475 C42.355353,48.8981231 40.2410716,50.4693081 37.8445698,50.6554787 L37.8445698,50.6554787 Z M34.6215654,45.3312367 L35.6686268,42.1426205 L39.0718728,42.1426205 L39.0920314,42.2113969 L40.1177484,45.3241219 L37.369064,47.3020363 L34.6215654,45.3312367 Z M36.8876292,50.6554787 C34.4982422,50.4693081 32.382775,48.9052379 31.5159552,46.6747481 L33.9397304,46.0201865 L36.8876292,48.1344679 L36.8876292,50.6554787 Z M31.0890672,44.3944547 C31.0890672,42.7129903 31.7554868,41.1157177 32.940101,39.9382183 L34.7804626,41.7762083 L33.6918982,45.0964483 L31.232549,45.7510099 C31.1364992,45.3110781 31.0890672,44.8569167 31.0890672,44.3944547 L31.0890672,44.3944547 Z M37.369064,38.1132721 C38.685302,38.1132721 39.9730808,38.5259305 41.033186,39.2907715 L39.1465782,41.1844941 L35.537003,41.1844941 L33.6705538,39.3180449 C34.7377738,38.5401601 36.0338532,38.1132721 37.369064,38.1132721 L37.369064,38.1132721 Z M42.0672036,38.8852279 C41.412642,38.3267161 40.6691454,37.8927133 39.877031,37.6021923 C39.0778018,37.3069281 38.2323264,37.1563315 37.369064,37.1563315 C35.6342386,37.1563315 33.95396,37.7753191 32.637722,38.9113155 C31.8456076,39.6002653 31.2112046,40.4481123 30.7843166,41.3777795 C30.3586144,42.3145615 30.1321266,43.3402785 30.1321266,44.3944547 C30.1321266,45.1035631 30.2341054,45.8067425 30.4333198,46.4814627 C30.8756232,47.9411825 31.783946,49.2503057 33.0088774,50.1728581 C34.2705686,51.1309845 35.7789062,51.6325779 37.369064,51.6325779 C38.9532928,51.6325779 40.4616304,51.1309845 41.7292506,50.1728581 C42.948253,49.2503057 43.8660622,47.9340677 44.3071798,46.4743479 C44.5063942,45.7996277 44.6095588,45.1035631 44.6095588,44.3944547 C44.6095588,42.2730585 43.6787058,40.2619417 42.0672036,38.8852279 L42.0672036,38.8852279 Z" id="Fill-1"></path>
                <path d="M16.316608,6.72621334 C14.4620168,6.78313174 12.9086188,5.32104034 12.8517004,3.46644914 C12.794782,1.61304374 14.2568734,0.05845994 16.1114646,0.00272734 C17.96487,-0.05537686 19.5194538,1.40790034 19.5763722,3.26130574 C19.6332906,5.11589694 18.1700134,6.66929494 16.316608,6.72621334" id="Fill-4"></path>
                <path d="M16.602623,10.7769061 C16.602623,11.1978651 16.5409614,11.6200099 16.3844358,12.0255535 L16.0868,12.8224111 L14.4788552,17.1778545 L13.0143922,21.1206395 L11.0281772,21.8570213 C10.4815234,22.0763943 10.122226,22.6064469 10.122226,23.1839315 L10.122226,25.7915057 L8.01624516,23.8444221 C7.12570936,22.9076401 5.95532476,21.9388415 5.95532476,20.1909723 C5.95532476,19.7391825 6.03358756,19.2233595 6.21975816,18.6304595 L8.18818616,13.2908021 L6.04781716,14.1184905 C5.50234916,14.3212623 5.14305176,14.8513149 5.14305176,15.4454007 L5.14305176,17.9581109 C5.14305176,19.1130801 4.22168516,20.1127095 3.06671596,20.1447261 C1.87973016,20.1601415 0.91211736,19.2079441 0.91211736,18.0209583 L0.91211736,12.5413765 C0.91211736,11.9638919 1.27141476,11.4326535 1.81806856,11.2144663 L11.5297706,7.45192294 C11.9815604,7.24796534 12.4653668,7.15428714 12.980004,7.15428714 C13.3867334,7.15428714 13.8231078,7.21713454 14.2298372,7.37366014 C15.6978576,7.91912814 16.602623,9.29347034 16.602623,10.7769061" id="Fill-6"></path>
                <path d="M10.1223445,30.9308815 C10.1223445,31.3079659 9.97293374,31.6696349 9.70494294,31.9364399 L3.60518774,38.0361951 C2.78105674,38.8626977 1.44347434,38.8626977 0.61815754,38.0361951 C-0.20597346,37.2120641 -0.20597346,35.8744817 0.61815754,35.0503507 L5.48230914,30.1885707 C5.74911414,29.9217657 5.89733914,29.5600967 5.89733914,29.1830123 L5.89733914,23.3808929 L10.1223445,27.2940329 L10.1223445,30.9308815 Z" id="Fill-8"></path>
                <path d="M26.5047644,18.0590225 C24.651359,18.1159409 23.0967752,16.6538495 23.0398568,14.7992583 C22.9829384,12.9458529 24.4450298,11.3912691 26.299621,11.3343507 C28.1530264,11.2774323 29.7064244,12.7395237 29.7645286,14.5941149 C29.8202612,16.4487061 28.3581698,18.0021041 26.5047644,18.0590225" id="Fill-10"></path>
                <path d="M28.0553165,39.2372919 L28.0553165,47.8082543 C28.0553165,48.9644093 27.1493653,49.9628529 25.9789807,49.9938973 C24.8085961,50.0102849 23.8386117,49.0569017 23.8386117,47.8711017 L23.8386117,41.0171777 C23.8386117,40.6270495 23.6678565,40.2523367 23.3856361,39.9713021 L19.2483799,36.1459113 L18.2025043,35.1782985 C17.3131543,34.2415165 16.1439555,33.2727179 16.1439555,31.5248487 C16.1439555,31.0564577 16.2210325,30.5572359 16.4083889,29.9643359 L17.5941889,26.7318451 L18.3756311,24.6246785 L16.3004811,25.4203503 L16.2352621,25.4523669 C15.6886083,25.6551387 15.3304967,26.1851913 15.3304967,26.7626759 L15.3304967,29.2919873 C15.3304967,29.7141321 15.2071735,30.1196757 15.0032159,30.4469565 L15.0032159,30.4635577 C14.6296889,31.0564577 13.9881711,31.4465859 13.2553467,31.4620013 C12.5367519,31.4786025 11.8964199,31.1347205 11.5062917,30.6034821 C11.2560879,30.2607859 11.1007481,29.8232257 11.1007481,29.3536489 L11.1007481,23.8752529 C11.1007481,23.2977683 11.4600455,22.7665299 12.0055135,22.5483427 L14.6427327,21.5166967 L19.0918543,19.8008441 L21.7160297,18.7857993 C22.1690053,18.5818417 22.6694129,18.4727481 23.1686347,18.4727481 C23.5884079,18.4727481 24.0117385,18.5521967 24.4172821,18.7075365 C24.8394269,18.8640621 25.2141397,19.0976647 25.5414205,19.3941147 C26.3382781,20.0498621 26.7900679,21.0494915 26.7900679,22.1107825 C26.7900679,22.5317415 26.7284063,22.9538863 26.5730665,23.3594299 L26.2754307,24.1562875 L24.6674859,28.5117309 L22.8401681,33.4446589 L27.6485871,38.2388483 C27.9153921,38.5032817 28.0553165,38.8625791 28.0553165,39.2372919" id="Fill-12"></path>
                <path d="M20.310501,42.2636907 C20.310501,42.6407751 20.1610902,43.0024441 19.8919136,43.2692491 L13.7933442,49.3690043 C12.9692132,50.1955069 11.630445,50.1955069 10.8074998,49.3690043 C9.98218298,48.5448733 9.98218298,47.2072909 10.8074998,46.3831599 L15.6692798,41.5213799 C15.9360848,41.2545749 16.0854956,40.8929059 16.0854956,40.5158215 L16.0854956,34.5880073 L20.310501,38.5011473 L20.310501,42.2636907 Z" id="Fill-14"></path>
                <path d="M34.2472084,30.0871848 C33.8428506,31.1816782 32.6285914,31.7413758 31.5352838,31.3393896 L27.8438884,30.062283 C27.638745,29.991135 27.4537602,29.8749266 27.3031636,29.7219584 L25.848187,28.2266646 L27.4596892,23.8641064 L29.6083588,26.0530932 C29.761327,26.2072472 29.9463118,26.3222698 30.1490836,26.3934178 L32.9950036,27.3752602 C34.0883112,27.779618 34.6491946,28.9926914 34.2472084,30.0871848" id="Fill-16"></path>
                <path d="M55.7930758,3.26142432 C55.8499942,1.40683312 57.4033922,-0.05525828 59.2579834,0.00166012 C61.1113888,0.05857852 62.574666,1.61316232 62.5177476,3.46656772 C62.4608292,5.32115892 60.9062454,6.78206452 59.0540258,6.72633192 C57.1982488,6.66941352 55.7373432,5.11601552 55.7930758,3.26142432" id="Fill-18"></path>
                <path d="M58.7656392,10.7769061 C58.7656392,11.1978651 58.8284866,11.6200099 58.9850122,12.0255535 L59.282648,12.8224111 L60.889407,17.1778545 L62.35387,21.1206395 L64.3412708,21.8570213 C64.8867388,22.0763943 65.247222,22.6064469 65.247222,23.1839315 L65.247222,25.7915057 L67.352017,23.8444221 C68.2425528,22.9076401 69.4129374,21.9388415 69.4129374,20.1909723 C69.4129374,19.7391825 69.3346746,19.2233595 69.1496898,18.6304595 L67.1812618,13.2908021 L69.320445,14.1184905 C69.865913,14.3212623 70.2252104,14.8513149 70.2252104,15.4454007 L70.2252104,17.9581109 C70.2252104,19.1130801 71.146577,20.1127095 72.3015462,20.1447261 C73.488532,20.1601415 74.4561448,19.2079441 74.4561448,18.0209583 L74.4561448,12.5413765 C74.4561448,11.9638919 74.0980332,11.4326535 73.5513794,11.2144663 L63.8396774,7.45192294 C63.3878876,7.24796534 62.9028954,7.15428714 62.389444,7.15428714 C61.9827146,7.15428714 61.5463402,7.21713454 61.1407966,7.37366014 C59.6727762,7.91912814 58.7656392,9.29347034 58.7656392,10.7769061" id="Fill-21"></path>
                <path d="M65.2469849,30.9308815 C65.2469849,31.3079659 65.3963957,31.6696349 65.6643865,31.9364399 L71.7641417,38.0361951 C72.5882727,38.8626977 73.9270409,38.8626977 74.7499861,38.0361951 C75.5764887,37.2120641 75.5764887,35.8744817 74.7499861,35.0503507 L69.8882061,30.1885707 C69.6202153,29.9217657 69.4708045,29.5600967 69.4708045,29.1830123 L69.4708045,23.3808929 L65.2469849,27.2940329 L65.2469849,30.9308815 Z" id="Fill-23"></path>
                <path d="M45.6049194,14.5936406 C45.6618378,12.7390494 47.21405,11.276958 49.069827,11.3338764 C50.9232324,11.3907948 52.3865096,12.9453786 52.3295912,14.798784 C52.2726728,16.6533752 50.718089,18.1142808 48.8646836,18.0585482 C47.0112782,18.0016298 45.548001,16.4482318 45.6049194,14.5936406" id="Fill-26"></path>
                <path d="M47.3141315,39.2372919 L47.3141315,47.8082543 C47.3141315,48.9644093 48.2200827,49.9628529 49.3904673,49.9938973 C50.5608519,50.0102849 51.5296505,49.0569017 51.5296505,47.8711017 L51.5296505,41.0171777 C51.5296505,40.6270495 51.7004057,40.2523367 51.9826261,39.9713021 L56.1198823,36.1459113 L57.1657579,35.1782985 C58.0551079,34.2415165 59.2266783,33.2727179 59.2266783,31.5248487 C59.2266783,31.0564577 59.1472297,30.5572359 58.9610591,29.9643359 L57.7752591,26.7318451 L56.9938169,24.6246785 L59.0701527,25.4203503 L59.1330001,25.4523669 C59.6796539,25.6551387 60.0377655,26.1851913 60.0377655,26.7626759 L60.0377655,29.2919873 C60.0377655,29.7141321 60.1622745,30.1196757 60.3662321,30.4469565 L60.3662321,30.4635577 C60.7397591,31.0564577 61.3812769,31.4465859 62.1141013,31.4620013 C62.8326961,31.4786025 63.4730281,31.1347205 63.8631563,30.6034821 C64.1133601,30.2607859 64.2686999,29.8232257 64.2686999,29.3536489 L64.2686999,23.8752529 C64.2686999,23.2977683 63.9094025,22.7665299 63.3639345,22.5483427 L60.7243437,21.5166967 L56.2764079,19.8008441 L53.6534183,18.7857993 C53.2004427,18.5818417 52.7000351,18.4727481 52.2008133,18.4727481 C51.7798543,18.4727481 51.3577095,18.5521967 50.9521659,18.7075365 C50.5300211,18.8640621 50.1553083,19.0976647 49.8280275,19.3941147 C49.0311699,20.0498621 48.5781943,21.0494915 48.5781943,22.1107825 C48.5781943,22.5317415 48.6410417,22.9538863 48.7975673,23.3594299 L49.0940173,24.1562875 L50.7007763,28.5117309 L52.5280941,33.4446589 L47.7196751,38.2388483 C47.4540559,38.5032817 47.3141315,38.8625791 47.3141315,39.2372919" id="Fill-28"></path>
                <path d="M55.0588284,42.2636907 C55.0588284,42.6407751 55.2082392,43.0024441 55.4750442,43.2692491 L61.5759852,49.3690043 C62.4001162,50.1955069 63.7376986,50.1955069 64.5618296,49.3690043 C65.3871464,48.5448733 65.3871464,47.2072909 64.5618296,46.3831599 L59.6988638,41.5213799 C59.4320588,41.2545749 59.282648,40.8929059 59.282648,40.5158215 L59.282648,34.5880073 L55.0588284,38.5011473 L55.0588284,42.2636907 Z" id="Fill-30"></path>
                <path d="M41.1222396,30.0871848 C41.5265974,31.1816782 42.7408566,31.7413758 43.8329784,31.3393896 L47.5255596,30.062283 C47.7283314,29.991135 47.914502,29.8749266 48.0662844,29.7219584 L49.521261,28.2266646 L47.908573,23.8641064 L45.7610892,26.0530932 C45.608121,26.2072472 45.4231362,26.3222698 45.2191786,26.3934178 L42.3744444,27.3752602 C41.2811368,27.779618 40.7190676,28.9926914 41.1222396,30.0871848" id="Fill-32"></path>
            </g>
        </g>
    </g>
</svg>