<?xml version="1.0" encoding="UTF-8"?>
<svg width="42px" height="61px" viewBox="0 0 42 61" version="1.1" xmlns="http://www.w3.org/2000/svg" xmlns:xlink="http://www.w3.org/1999/xlink">
    <title>DDD96E06-B7F2-4696-8844-9ADD7E43FE1C</title>
    <g id="MAQUETTES" stroke="none" stroke-width="1" fill="none" fill-rule="evenodd">
        <g id="FACILITIES" transform="translate(-388.000000, -943.000000)">
            <g id="col1" transform="translate(125.000000, 761.000000)">
                <g id="pin-five" transform="translate(263.000000, 182.000000)">
                    <g id="Group-5">
                        <rect id="Rectangle" fill="#FFFFFF" x="11.7" y="3.12" width="17.16" height="27.3"></rect>
                        <path d="M20.0470926,28.3916496 C17.3202027,28.3916496 14.9103247,27.0409243 13.4446337,24.9739867 L16.679819,22.111584 C17.325584,23.309674 18.5906966,24.1242186 20.0470926,24.1242186 C22.1580595,24.1242186 23.869337,22.4129411 23.869337,20.3019741 C23.869337,19.01289 23.2289533,17.8749736 22.2514998,17.182733 L25.4901096,14.317395 C27.1162635,15.7967841 28.1367681,17.930255 28.1367681,20.3019741 C28.1367681,24.7694945 24.5151021,28.3916496 20.0470926,28.3916496 L20.0470926,28.3916496 Z M13.4783896,6.91555714 L27.0536439,6.91555714 L22.9075384,10.5841878 L22.6961971,10.7705791 L17.9615648,10.7705791 L17.9185138,10.7705791 L17.9185138,10.8087379 L17.9185138,12.4970223 L17.9185138,14.9974052 L13.4788788,18.9258095 L13.4788788,15.5825075 L13.4788788,14.7366531 L13.4788788,10.7705791 L13.4783896,10.7705791 L13.4783896,6.91555714 Z M33.4540566,-6.65068001e-14 L7.82990181,-6.65068001e-14 L9.14468501e-14,23.7939978 L20.7359087,38.639746 L41.2834692,23.8957547 L33.4540566,-6.65068001e-14 Z" id="Fill-7" fill="#07356D"></path>
                    </g>
                    <line x1="20.5" y1="59.5" x2="20.5" y2="38.5" id="Line-3" stroke="#07356D" stroke-width="2" stroke-linecap="square"></line>
                </g>
            </g>
        </g>
    </g>
</svg>