<?xml version="1.0" encoding="UTF-8"?>
<svg width="27px" height="27px" viewBox="0 0 27 27" version="1.1" xmlns="http://www.w3.org/2000/svg" xmlns:xlink="http://www.w3.org/1999/xlink">
    <title>EA9EC666-0AE8-4914-BDA8-F1DE705B1354</title>
    <g id="MAQUETTES" stroke="none" stroke-width="1" fill="none" fill-rule="evenodd">
        <g id="LEAGUES" transform="translate(-1390.000000, -25.000000)" fill="#07356D" fill-rule="nonzero">
            <g id="SEARCH" transform="translate(1365.000000, 0.000000)">
                <g id="search-icon" transform="translate(25.000000, 25.000000)">
                    <path d="M26.3199999,23.343262 L19.3110701,16.3343766 C20.413893,14.6685466 21.0556812,12.6748355 21.0556812,10.5286477 C21.0556812,4.71330552 16.3423627,0 10.5278663,0 C4.71326715,0 0,4.71330552 0,10.5286477 C0,16.3423963 4.71331856,21.0572954 10.5278663,21.0572954 C12.6732095,21.0572954 14.6693127,20.4132026 16.3335717,19.3111145 L23.3424501,26.3199999 L26.3199999,23.343262 Z M2.98320476,10.5302414 C2.98320476,6.36309611 6.36153803,2.98635128 10.5278663,2.98635128 C14.6950171,2.98635128 18.073299,6.36309611 18.073299,10.5302414 C18.073299,14.697438 14.6949657,18.0757251 10.5278663,18.0757251 C6.36153803,18.0757251 2.98320476,14.697438 2.98320476,10.5302414 Z"></path>
                </g>
            </g>
        </g>
    </g>
</svg>