<?xml version="1.0" encoding="UTF-8"?>
<svg width="52px" height="58px" viewBox="0 0 52 58" version="1.1" xmlns="http://www.w3.org/2000/svg" xmlns:xlink="http://www.w3.org/1999/xlink">
    <title>1F6DBEFE-6F2E-4B9E-BEAF-E09DD8A6A9F1</title>
    <defs>
        <polygon id="path-1" points="0.881368 0.873828 37.29516 0.873828 37.29516 47.430428 0.881368 47.430428"></polygon>
        <polygon id="path-3" points="0.534876 0.74936 23.845076 0.74936 23.845076 14.739424 0.534876 14.739424"></polygon>
    </defs>
    <g id="MAQUETTES" stroke="none" stroke-width="1" fill="none" fill-rule="evenodd">
        <g id="HOME01" transform="translate(-210.000000, -1243.000000)">
            <g id="training-icon" transform="translate(210.000000, 1243.000000)">
                <g id="Group-3" transform="translate(13.920000, 9.691104)">
                    <mask id="mask-2" fill="white">
                        <use xlink:href="#path-1"></use>
                    </mask>
                    <g id="Clip-2"></g>
                    <path d="M35.436608,0.873828 L28.937128,0.873828 L28.937128,3.583588 L9.360968,3.583588 L9.360968,0.873828 L2.739688,0.873828 C1.711928,0.873828 0.881368,1.705548 0.881368,2.732148 L0.881368,45.572108 C0.881368,46.598708 1.711928,47.430428 2.739688,47.430428 L35.436608,47.430428 C36.464368,47.430428 37.296088,46.598708 37.296088,45.572108 L37.296088,2.732148 C37.296088,1.705548 36.464368,0.873828 35.436608,0.873828 M35.427328,2.741428 L35.436608,45.562828 L2.748968,45.572108 L2.739688,2.741428 L7.491048,2.741428 L7.491048,3.583588 L7.491048,5.452348 L9.360968,5.452348 L28.937128,5.452348 L30.804728,5.452348 L30.804728,3.583588 L30.804728,2.741428 L35.427328,2.741428" id="Fill-1" fill="#FFFFFF" mask="url(#mask-2)"></path>
                </g>
                <g id="Group-6" transform="translate(20.880000, 0.411104)">
                    <mask id="mask-4" fill="white">
                        <use xlink:href="#path-3"></use>
                    </mask>
                    <g id="Clip-5"></g>
                    <path d="M12.124436,0.748664 C11.634916,0.748664 11.129156,0.825224 10.614116,0.987624 C8.732596,1.585024 7.509956,3.408544 7.509956,5.381704 C7.509956,5.396784 7.498356,5.409544 7.482116,5.409544 L1.465196,5.409544 C0.950156,5.409544 0.534876,5.825984 0.534876,6.339864 L0.534876,13.802144 C0.534876,14.319504 0.952476,14.739424 1.469836,14.739424 L22.910116,14.739424 C23.425156,14.739424 23.845076,14.320664 23.845076,13.804464 L23.845076,6.342184 C23.845076,5.825984 23.426316,5.409544 22.912436,5.409544 L16.736596,5.409544 L16.736596,5.361984 C16.736596,2.812304 14.672956,0.748664 12.124436,0.748664 M12.124436,2.616264 C13.638236,2.616264 14.867836,3.848184 14.867836,5.361984 L14.867836,5.409544 L14.867836,7.277144 L16.736596,7.277144 L21.976316,7.277144 L21.976316,12.870664 L2.401316,12.870664 L2.401316,7.277144 L7.482116,7.277144 L9.378716,7.249304 L9.378716,5.381704 C9.378716,4.178784 10.118796,3.104624 11.179036,2.768224 C11.496876,2.668464 11.813556,2.616264 12.124436,2.616264" id="Fill-4" fill="#FFFFFF" mask="url(#mask-4)"></path>
                </g>
                <path d="M25.609436,19.794008 C22.954196,19.794008 20.802396,21.946968 20.802396,24.601048 C20.802396,27.256288 22.954196,29.409248 25.609436,29.409248 C28.264676,29.409248 30.417636,27.256288 30.417636,24.601048 C30.417636,21.946968 28.264676,19.794008 25.609436,19.794008 M25.609436,21.661608 C27.229956,21.661608 28.548876,22.980528 28.548876,24.601048 C28.548876,26.222728 27.229956,27.540488 25.609436,27.540488 C23.990076,27.540488 22.671156,26.222728 22.671156,24.601048 C22.671156,22.980528 23.990076,21.661608 25.609436,21.661608" id="Fill-7" fill="#FFFFFF"></path>
                <path d="M7.289556,11.39526 C5.225916,11.39526 3.543916,13.06682 3.534636,15.13046 L3.534636,30.5573 L11.044476,30.5573 L11.044476,15.13046 C11.035196,13.06682 9.353196,11.39526 7.289556,11.39526 M7.289556,12.79654 C8.581796,12.79654 9.637396,13.84634 9.644356,15.13046 L9.644356,29.15718 L4.935916,29.15718 L4.935916,15.13742 C4.942876,13.84634 5.997316,12.79654 7.289556,12.79654" id="Fill-9" fill="#FFFFFF"></path>
                <line x1="36.096996" y1="41.802804" x2="43.955996" y2="49.662964" id="Stroke-11" stroke="#FFFFFF" stroke-width="1.8676" stroke-linecap="round" stroke-linejoin="round"></line>
                <line x1="36.096996" y1="49.662848" x2="43.955996" y2="41.802688" id="Stroke-13" stroke="#FFFFFF" stroke-width="1.8676" stroke-linecap="round" stroke-linejoin="round"></line>
                <path d="M28.388216,49.815156 C28.388216,49.815156 27.902176,35.819756 43.008856,22.479756" id="Stroke-15" stroke="#FFFFFF" stroke-width="1.8676" stroke-linecap="round" stroke-linejoin="round"></path>
                <polygon id="Fill-17" fill="#FFFFFF" points="43.439912 28.889336 42.228872 28.795376 42.695192 22.827176 36.708432 22.797016 36.717712 21.581336 44.007152 21.620776"></polygon>
                <path d="M11.044824,29.149872 L3.534984,29.149872 L3.534984,49.816432 L6.692504,56.886632 C6.817784,57.129072 7.055584,57.250872 7.293384,57.250872 C7.530024,57.250872 7.765504,57.129072 7.886144,56.886632 L11.044824,49.816432 L11.044824,29.149872 Z M9.643544,30.551152 L9.643544,49.519472 L7.289904,54.789352 L4.936264,49.519472 L4.936264,30.551152 L9.643544,30.551152 L9.643544,30.551152 Z" id="Fill-19" fill="#FFFFFF"></path>
                <polyline id="Stroke-21" stroke="#FFFFFF" stroke-width="1.40128" stroke-linecap="round" stroke-linejoin="round" points="4.504048 14.336092 0.701568 17.461132 0.701568 29.409132"></polyline>
            </g>
        </g>
    </g>
</svg>